<?xml version="1.0" encoding="utf-8"?>
<!-- Generator: Adobe Illustrator 17.0.0, SVG Export Plug-In . SVG Version: 6.00 Build 0)  -->
<!DOCTYPE svg PUBLIC "-//W3C//DTD SVG 1.1//EN" "http://www.w3.org/Graphics/SVG/1.1/DTD/svg11.dtd">
<svg version="1.1" id="Calque_1" xmlns="http://www.w3.org/2000/svg" xmlns:xlink="http://www.w3.org/1999/xlink" x="0px" y="0px"
	 width="154.718px" height="69.483px" viewBox="0 0 154.718 69.483" enable-background="new 0 0 154.718 69.483"
	 xml:space="preserve">
<g>
	<polygon fill="#FFFFFF" points="111.251,51.952 111.251,47.162 109.463,47.162 109.463,46.522 113.765,46.522 113.765,47.162 
		111.97,47.162 111.97,51.952 	"/>
	<rect x="117.992" y="46.522" fill="#FFFFFF" width="0.718" height="5.431"/>
	<polygon fill="#FFFFFF" points="132.606,51.952 132.606,46.522 133.343,46.522 136.195,50.785 136.195,46.522 136.884,46.522 
		136.884,51.952 136.147,51.952 133.295,47.686 133.295,51.952 	"/>
	<polygon fill="#FFFFFF" points="33.87,35.419 30.317,37.437 30.317,39.247 33.87,37.22 	"/>
	<polygon fill="#FFFFFF" points="33.87,38.28 30.317,40.296 30.317,42.106 33.87,40.082 	"/>
	<polygon fill="#FFFFFF" points="30.317,44.782 33.87,42.756 33.87,40.954 30.317,42.968 	"/>
	<polygon fill="#FFFFFF" points="39.477,22.201 34.665,24.908 34.665,26.703 39.477,23.982 	"/>
	<polygon fill="#FFFFFF" points="39.477,25.088 34.665,27.799 34.665,29.675 39.477,26.891 	"/>
	<polygon fill="#FFFFFF" points="34.665,32.481 39.477,29.757 39.477,27.967 34.665,30.659 	"/>
	<path fill="#FFFFFF" d="M24.244,39.953c-2.369-8.742,4.852-18.303,16.129-21.358c5.632-1.529,11.208-1.143,15.676,0.713
		c-5.185-2.334-12.078-2.843-19.108-0.935c-12.773,3.46-21.151,13.559-18.714,22.558c2.439,8.998,14.772,13.483,27.548,10.024
		c0.14-0.042,0.282-0.08,0.425-0.124C35.927,52.513,26.418,47.977,24.244,39.953"/>
	<path fill="#FFFFFF" d="M49.171,46.374V30.181l3.978-1.781v-2.239l-12.802-4.482l-0.042,25.538c-0.81-0.02-1.601-0.064-2.372-0.135
		V35.96l-3.276-1.047v11.696c-1.555-0.319-2.961-0.743-4.156-1.264c2.874,2.181,7.304,3.578,12.279,3.578
		c7.268,0,13.377-2.978,15.159-7.025C56.502,43.81,53.296,45.438,49.171,46.374"/>
	<path fill="#FFFFFF" d="M75.608,32.914c0.967-0.264,1.694-0.744,2.183-1.443c0.485-0.7,0.73-1.484,0.73-2.349
		c0-1.186-0.419-2.242-1.262-3.165c-0.836-0.925-2.174-1.386-4.004-1.386h-8.814v17.359h8.269c2.593,0,4.288-0.507,5.082-1.52
		c0.792-1.011,1.189-2.162,1.189-3.451C78.98,34.804,77.856,33.456,75.608,32.914 M69.352,28.298h2.376
		c1.188,0,1.781,0.482,1.781,1.448c0,0.358-0.128,0.693-0.382,1.005c-0.255,0.314-0.691,0.47-1.308,0.47h-2.468V28.298z
		 M73.364,37.587c-0.3,0.32-0.774,0.478-1.418,0.478h-2.594v-3.153h2.415c0.78,0,1.318,0.166,1.611,0.501
		c0.292,0.336,0.437,0.704,0.437,1.099C73.815,36.912,73.663,37.271,73.364,37.587"/>
	<path fill="#FFFFFF" d="M136.518,39.413v-5.164c0-1.398-0.086-2.345-0.261-2.834c-0.175-0.494-0.516-0.959-1.026-1.402
		c-0.507-0.439-2.194-1.516-4.96-1.482c-3.491,0.037-5.649,1.321-6.514,3.553c1.696,0.126,3.222,0.527,4.409,1.115
		c0.143-0.927,0.794-1.391,1.955-1.391c0.497,0,0.878,0.095,1.137,0.28c0.258,0.187,0.389,0.564,0.389,1.133v0.293
		c-0.932,0.049-1.775,0.129-2.539,0.235c-1.832,0.261-3.193,0.688-4.068,1.283c-1.244,0.845-1.863,1.95-1.863,3.315
		c0,0.775,0.224,1.481,0.672,2.118c0.136,0.195,0.287,0.384,0.465,0.565c0.759,0.779,1.902,1.168,3.425,1.168
		c1.858,0,3.246-0.689,4.162-2.072c0,0.656,0.058,1.256,0.179,1.806h4.832C136.65,41.237,136.518,40.397,136.518,39.413
		 M131.647,36.502c0,1.102-0.19,1.814-0.574,2.136c-0.38,0.322-0.843,0.484-1.386,0.484c-0.325,0-0.59-0.059-0.792-0.172
		c-0.326-0.186-0.491-0.517-0.491-1c0-0.967,0.763-1.608,2.287-1.926c0.292-0.061,0.608-0.11,0.957-0.148V36.502z"/>
	<path fill="#FFFFFF" d="M91.843,30.144c-1.198-0.941-2.692-1.414-4.483-1.414c-2.135,0-3.845,0.665-5.124,1.996
		c-1.281,1.332-1.922,2.963-1.922,4.896c0,1.867,0.651,3.429,1.947,4.688c1.295,1.257,3.034,1.887,5.213,1.887
		c1.96,0,3.514-0.445,4.664-1.34c0.933-0.728,1.573-1.584,1.935-2.56c-1.719-0.081-3.281-0.45-4.519-1.006l-0.007-0.003
		c-0.194,1.059-0.844,1.592-1.946,1.592c-0.761,0-1.279-0.197-1.552-0.591c-0.27-0.396-0.415-1.001-0.432-1.813h2.543h6.12
		c0.008-0.314,0.012-0.56,0.012-0.739c0-2.161-0.639-3.869-1.915-5.123C92.207,30.444,92.027,30.289,91.843,30.144 M86.752,33.931
		h-1.148c0-1.475,0.6-2.214,1.801-2.214c0.214,0,0.414,0.034,0.603,0.089c0.249,0.073,0.474,0.191,0.672,0.365
		c0.34,0.3,0.516,0.889,0.524,1.76H86.752z"/>
	<path fill="#FFFFFF" d="M105.561,33.861c-0.556-0.18-1.483-0.359-2.783-0.533c-0.462-0.061-0.971-0.126-1.529-0.186
		c-0.814-0.094-1.221-0.35-1.221-0.775c0-0.143,0.135-0.29,0.401-0.437c0.248-0.138,0.616-0.209,1.099-0.22l0.115-0.004
		c1.031,0,1.74,0.313,2.132,0.932c1.164-0.347,2.511-0.544,3.945-0.55c-0.872-2.236-2.867-3.357-5.986-3.357
		c-1.79,0-3.236,0.41-4.337,1.227l-0.108,0.088c-1.028,0.805-1.546,1.845-1.546,3.122c0,0.95,0.327,1.813,0.979,2.59
		c0.527,0.625,1.695,1.116,3.504,1.475c0.436,0.086,0.909,0.164,1.417,0.236c0.95,0.125,1.552,0.251,1.806,0.373
		c0.256,0.124,0.383,0.295,0.383,0.516c0,0.509-0.657,0.764-1.972,0.764c-1.583,0-2.492-0.467-2.722-1.399l-0.336,0.043
		c-1.086,0.325-2.328,0.519-3.653,0.546c0.842,2.591,3.001,3.886,6.483,3.886c2.079,0,3.71-0.414,4.891-1.244
		c1.184-0.833,1.774-1.96,1.774-3.374c0-0.926-0.267-1.715-0.801-2.367C106.959,34.557,106.318,34.107,105.561,33.861"/>
	<path fill="#FFFFFF" d="M119.361,33.861c-1.432-0.378-3.877-0.673-4.311-0.72c-0.814-0.094-1.222-0.35-1.222-0.775
		c0-0.143,0.136-0.29,0.401-0.437c0.167-0.092,0.396-0.155,0.669-0.189c0.164-0.02,0.342-0.035,0.545-0.035
		c1.145,0,1.897,0.382,2.252,1.146c0,0,1.994-0.804,3.824-0.769c-0.875-2.234-2.868-3.352-5.987-3.352
		c-1.788,0-3.232,0.41-4.336,1.227c-0.118,0.086-0.225,0.178-0.331,0.27c-0.88,0.781-1.321,1.757-1.321,2.94
		c0,0.95,0.323,1.813,0.976,2.59c0.536,0.634,1.744,1.134,3.612,1.494c0.218,0.042,0.444,0.082,0.683,0.121
		c0.203,0.033,0.411,0.064,0.627,0.096c0.95,0.125,1.554,0.251,1.807,0.373c0.255,0.124,0.38,0.295,0.38,0.516
		c0,0.375-0.362,0.612-1.085,0.713c-0.251,0.033-0.546,0.051-0.885,0.051c-1.56,0-2.463-0.454-2.708-1.357
		c-1.14,0.407-2.487,0.663-3.942,0.721c0.882,2.473,3.019,3.711,6.42,3.711c2.078,0,3.708-0.414,4.889-1.244
		c0.235-0.165,0.438-0.343,0.627-0.529c0.76-0.761,1.15-1.708,1.15-2.845c0-0.926-0.269-1.715-0.802-2.367
		C120.76,34.557,120.128,34.065,119.361,33.861"/>
	<path fill="#FFFFFF" d="M64.375,51.952v-5.43h2.049c0.36,0,0.636,0.017,0.825,0.052c0.267,0.044,0.491,0.129,0.672,0.253
		c0.179,0.123,0.324,0.3,0.435,0.524c0.109,0.224,0.165,0.472,0.165,0.74c0,0.461-0.147,0.853-0.441,1.173
		c-0.294,0.321-0.825,0.478-1.593,0.478h-1.393v2.209H64.375z M65.094,49.103h1.404c0.464,0,0.793-0.086,0.989-0.257
		c0.195-0.175,0.292-0.417,0.292-0.73c0-0.227-0.057-0.423-0.172-0.585c-0.116-0.16-0.266-0.269-0.454-0.319
		c-0.121-0.033-0.344-0.05-0.67-0.05h-1.389V49.103z"/>
	<path fill="#FFFFFF" d="M72.813,51.953v-5.43h2.407c0.484,0,0.853,0.049,1.104,0.147c0.252,0.096,0.453,0.269,0.604,0.516
		c0.149,0.246,0.225,0.52,0.225,0.818c0,0.386-0.124,0.71-0.374,0.975c-0.249,0.263-0.634,0.431-1.156,0.502
		c0.191,0.093,0.336,0.181,0.435,0.273c0.208,0.191,0.409,0.432,0.596,0.721l0.945,1.479h-0.904l-0.718-1.13
		c-0.21-0.327-0.384-0.574-0.52-0.747c-0.135-0.174-0.256-0.295-0.363-0.365c-0.108-0.07-0.217-0.116-0.328-0.144
		c-0.081-0.019-0.214-0.026-0.401-0.026h-0.832v2.412H72.813z M73.532,48.918h1.544c0.329,0,0.584-0.033,0.77-0.103
		c0.185-0.068,0.327-0.176,0.422-0.326c0.097-0.15,0.145-0.312,0.145-0.487c0-0.257-0.093-0.467-0.28-0.631
		c-0.186-0.167-0.481-0.248-0.884-0.248h-1.718V48.918z"/>
	<path fill="#FFFFFF" d="M81.429,49.306c0-0.901,0.243-1.604,0.727-2.115c0.483-0.511,1.108-0.766,1.872-0.766
		c0.502,0,0.954,0.121,1.357,0.36c0.402,0.239,0.709,0.571,0.92,1.003c0.211,0.428,0.316,0.913,0.316,1.455
		c0,0.554-0.111,1.046-0.332,1.48c-0.223,0.434-0.538,0.762-0.945,0.987c-0.408,0.225-0.847,0.336-1.319,0.336
		c-0.511,0-0.967-0.124-1.369-0.369c-0.402-0.25-0.708-0.588-0.915-1.015C81.532,50.235,81.429,49.784,81.429,49.306 M82.17,49.318
		c0,0.654,0.176,1.17,0.528,1.547c0.352,0.375,0.793,0.564,1.324,0.564c0.541,0,0.986-0.191,1.336-0.569
		c0.349-0.38,0.525-0.919,0.525-1.62c0-0.443-0.075-0.829-0.226-1.156c-0.148-0.331-0.366-0.585-0.654-0.768
		c-0.289-0.181-0.611-0.27-0.97-0.27c-0.508,0-0.946,0.174-1.313,0.524C82.354,47.917,82.17,48.5,82.17,49.318"/>
	<path fill="#FFFFFF" d="M90.894,51.952v-5.43h1.081l1.285,3.846c0.12,0.358,0.204,0.625,0.261,0.804
		c0.061-0.199,0.156-0.489,0.288-0.87l1.3-3.78h0.966v5.43h-0.691v-4.544l-1.578,4.544h-0.649l-1.569-4.623v4.623H90.894z"/>
	<path fill="#FFFFFF" d="M100.384,49.306c0-0.901,0.242-1.604,0.725-2.115c0.485-0.511,1.11-0.766,1.875-0.766
		c0.501,0,0.954,0.121,1.356,0.36c0.401,0.239,0.709,0.571,0.92,1.003c0.211,0.428,0.316,0.913,0.316,1.455
		c0,0.554-0.111,1.046-0.333,1.48c-0.222,0.434-0.537,0.762-0.945,0.987c-0.407,0.225-0.846,0.336-1.319,0.336
		c-0.511,0-0.967-0.124-1.37-0.369c-0.402-0.25-0.708-0.588-0.915-1.015C100.487,50.235,100.384,49.784,100.384,49.306
		 M101.125,49.318c0,0.654,0.175,1.17,0.527,1.547c0.352,0.375,0.793,0.564,1.324,0.564c0.542,0,0.985-0.191,1.336-0.569
		c0.349-0.38,0.524-0.919,0.524-1.62c0-0.443-0.075-0.829-0.224-1.156c-0.149-0.331-0.368-0.585-0.656-0.768
		c-0.287-0.181-0.61-0.27-0.968-0.27c-0.509,0-0.946,0.174-1.314,0.524C101.307,47.917,101.125,48.5,101.125,49.318"/>
	<path fill="#FFFFFF" d="M123.128,49.306c0-0.901,0.241-1.604,0.725-2.115c0.484-0.511,1.11-0.766,1.874-0.766
		c0.502,0,0.953,0.121,1.356,0.36c0.402,0.239,0.709,0.571,0.92,1.003c0.211,0.428,0.317,0.913,0.317,1.455
		c0,0.554-0.112,1.046-0.333,1.48c-0.222,0.434-0.538,0.762-0.945,0.987c-0.408,0.225-0.847,0.336-1.319,0.336
		c-0.511,0-0.966-0.124-1.369-0.369c-0.402-0.25-0.708-0.588-0.915-1.015C123.231,50.235,123.128,49.784,123.128,49.306
		 M123.867,49.318c0,0.654,0.177,1.17,0.528,1.547c0.352,0.375,0.793,0.564,1.324,0.564c0.541,0,0.985-0.191,1.336-0.569
		c0.35-0.38,0.525-0.919,0.525-1.62c0-0.443-0.074-0.829-0.225-1.156c-0.149-0.331-0.367-0.585-0.655-0.768
		c-0.289-0.181-0.611-0.27-0.97-0.27c-0.507,0-0.946,0.174-1.312,0.524C124.052,47.917,123.867,48.5,123.867,49.318"/>
</g>
</svg>
