<?xml version="1.0" encoding="utf-8"?>
<!-- Generator: Adobe Illustrator 17.0.0, SVG Export Plug-In . SVG Version: 6.00 Build 0)  -->
<!DOCTYPE svg PUBLIC "-//W3C//DTD SVG 1.1//EN" "http://www.w3.org/Graphics/SVG/1.1/DTD/svg11.dtd">
<svg version="1.1" id="Layer_1" xmlns="http://www.w3.org/2000/svg" xmlns:xlink="http://www.w3.org/1999/xlink" x="0px" y="0px"
	 width="141.73px" height="56.69px" viewBox="0 0 141.73 56.69" enable-background="new 0 0 141.73 56.69" xml:space="preserve">
<g>
	<rect x="56.686" y="39.146" fill="#C9252C" width="0.458" height="14.724"/>
	<polygon fill="#C9252C" points="24.01,24.2 20.066,26.42 20.066,28.415 24.01,26.184 	"/>
	<polygon fill="#C9252C" points="24.01,27.35 20.066,29.567 20.066,31.559 24.01,29.328 	"/>
	<polygon fill="#C9252C" points="20.066,34.499 24.01,32.273 24.01,30.289 20.066,32.506 	"/>
	<polygon fill="#C9252C" points="30.247,9.664 24.896,12.645 24.896,14.616 30.247,11.625 	"/>
	<polygon fill="#C9252C" points="30.247,12.843 24.896,15.823 24.896,17.887 30.247,14.827 	"/>
	<polygon fill="#C9252C" points="24.896,20.972 30.247,17.976 30.247,16.007 24.896,18.966 	"/>
	<path d="M13.325,29.184C10.689,19.573,18.71,9.058,31.24,5.698c6.253-1.681,12.446-1.254,17.409,0.785
		c-5.757-2.57-13.411-3.124-21.218-1.03C13.239,9.26,3.935,20.368,6.641,30.265C9.35,40.16,23.05,45.094,37.235,41.286
		c0.163-0.04,0.32-0.088,0.469-0.127C26.301,43.002,15.74,38.017,13.325,29.184"/>
	<path fill="#C9252C" d="M41.005,36.254V18.441l4.427-1.956v-2.466L31.208,9.088L31.164,37.18c-0.903-0.023-1.779-0.071-2.636-0.151
		V24.8l-3.637-1.154v12.858c-1.727-0.345-3.29-0.813-4.614-1.384c3.187,2.398,8.113,3.937,13.635,3.937
		c8.076,0,14.85-3.28,16.836-7.728C49.151,33.433,45.589,35.223,41.005,36.254"/>
	<path d="M67.022,27.994c-0.331,0.352-0.86,0.525-1.579,0.525h-2.875v-3.468h2.681c0.865,0,1.459,0.181,1.791,0.55
		c0.325,0.366,0.481,0.772,0.481,1.209C67.522,27.25,67.351,27.641,67.022,27.994 M62.568,17.779h2.637
		c1.318,0,1.981,0.527,1.981,1.59c0,0.396-0.14,0.763-0.426,1.109c-0.284,0.343-0.771,0.517-1.456,0.517h-2.735V17.779z
		 M69.513,22.853c1.076-0.289,1.885-0.816,2.428-1.584c0.541-0.772,0.816-1.63,0.816-2.581c0-1.311-0.477-2.471-1.401-3.486
		c-0.936-1.013-2.422-1.523-4.458-1.523h-9.791v19.095h9.188c2.884,0,4.761-0.561,5.646-1.674c0.878-1.112,1.319-2.378,1.319-3.8
		C73.261,24.936,72.009,23.449,69.513,22.853"/>
	<path d="M131.751,26.799c0,1.215-0.206,1.995-0.635,2.348c-0.42,0.352-0.935,0.532-1.54,0.532c-0.364,0-0.653-0.065-0.877-0.189
		c-0.361-0.202-0.546-0.567-0.546-1.099c0-1.063,0.848-1.768,2.541-2.117c0.323-0.065,0.671-0.122,1.057-0.16V26.799z
		 M137.163,30.001v-5.684c0-1.534-0.093-2.572-0.288-3.114c-0.192-0.543-0.57-1.056-1.139-1.539
		c-0.562-0.484-2.433-1.668-5.507-1.635c-3.876,0.044-6.273,1.455-7.237,3.914c1.888,0.137,3.583,0.576,4.9,1.225
		c0.16-1.019,0.882-1.534,2.168-1.534c0.556,0,0.978,0.104,1.268,0.312c0.284,0.203,0.424,0.616,0.424,1.246v0.318
		c-1.028,0.053-1.964,0.141-2.819,0.26c-2.036,0.285-3.541,0.757-4.514,1.414c-1.382,0.926-2.069,2.139-2.069,3.638
		c0,0.854,0.247,1.63,0.744,2.335c0.157,0.214,0.321,0.42,0.518,0.622c0.845,0.857,2.109,1.282,3.806,1.282
		c2.063,0,3.603-0.757,4.623-2.277c0,0.718,0.064,1.381,0.195,1.991h5.367C137.311,32.005,137.163,31.084,137.163,30.001"/>
	<path d="M81.889,23.756h-1.273c0-1.666,0.669-2.495,1.999-2.495c0.238,0,0.467,0.036,0.671,0.1
		c0.277,0.085,0.532,0.216,0.741,0.405c0.387,0.343,0.578,1.001,0.586,1.989H81.889z M87.547,19.491
		c-1.328-1.068-2.989-1.597-4.979-1.597c-2.37,0-4.267,0.748-5.697,2.248c-1.42,1.502-2.128,3.339-2.128,5.516
		c0,2.101,0.72,3.861,2.158,5.279c1.442,1.417,3.377,2.125,5.795,2.125c2.174,0,3.902-0.503,5.173-1.509
		c1.04-0.817,1.758-1.786,2.151-2.885c-1.912-0.097-3.643-0.506-5.015-1.134l-0.006-0.001c-0.218,1.194-0.941,1.79-2.165,1.79
		c-0.851,0-1.419-0.22-1.721-0.663c-0.305-0.447-0.462-1.127-0.479-2.042h2.825h6.795c0.01-0.358,0.012-0.631,0.012-0.833
		c0-2.433-0.71-4.358-2.128-5.773C87.951,19.824,87.749,19.649,87.547,19.491"/>
	<path d="M102.782,23.672c-0.624-0.2-1.644-0.403-3.086-0.595c-0.519-0.075-1.084-0.148-1.708-0.212
		c-0.903-0.105-1.35-0.396-1.35-0.875c0-0.159,0.151-0.33,0.445-0.495c0.268-0.153,0.681-0.23,1.214-0.243l0.134-0.006
		c1.142,0,1.933,0.35,2.364,1.049c1.298-0.388,2.792-0.617,4.383-0.617c-0.964-2.523-3.18-3.784-6.652-3.784
		c-1.986,0-3.589,0.462-4.814,1.382l-0.116,0.098c-1.144,0.908-1.714,2.08-1.714,3.524c0,1.064,0.361,2.038,1.089,2.909
		c0.573,0.704,1.873,1.259,3.882,1.663c0.488,0.097,1.014,0.185,1.578,0.265c1.051,0.143,1.722,0.284,2.006,0.423
		c0.282,0.138,0.426,0.336,0.426,0.582c0,0.573-0.728,0.854-2.198,0.854c-1.755,0-2.766-0.522-3.013-1.572l-0.381,0.049
		c-1.202,0.365-2.58,0.586-4.057,0.615c0.94,2.919,3.329,4.377,7.205,4.377c2.31,0,4.116-0.467,5.434-1.404
		c1.308-0.936,1.965-2.205,1.965-3.796c0-1.042-0.296-1.932-0.886-2.667C104.332,24.461,103.619,23.951,102.782,23.672"/>
	<path d="M118.11,23.672c-1.592-0.423-4.309-0.755-4.792-0.807c-0.902-0.105-1.354-0.396-1.354-0.875
		c0-0.159,0.151-0.33,0.443-0.495c0.185-0.099,0.439-0.173,0.746-0.209c0.184-0.021,0.376-0.039,0.603-0.039
		c1.272,0,2.108,0.431,2.504,1.29c0,0,2.21-0.906,4.245-0.866c-0.968-2.522-3.185-3.776-6.652-3.776
		c-1.986,0-3.59,0.462-4.817,1.382c-0.129,0.098-0.246,0.202-0.365,0.307c-0.984,0.876-1.465,1.979-1.465,3.315
		c0,1.064,0.361,2.038,1.088,2.909c0.593,0.721,1.931,1.275,4.006,1.683c0.247,0.047,0.496,0.092,0.762,0.141
		c0.224,0.034,0.456,0.071,0.695,0.104c1.058,0.143,1.725,0.284,2.005,0.423c0.288,0.138,0.428,0.336,0.428,0.582
		c0,0.421-0.404,0.688-1.21,0.797c-0.277,0.044-0.603,0.056-0.979,0.056c-1.739,0-2.739-0.505-3.013-1.524
		c-1.264,0.459-2.76,0.75-4.374,0.813c0.979,2.784,3.352,4.179,7.132,4.179c2.307,0,4.118-0.467,5.433-1.404
		c0.261-0.185,0.481-0.381,0.692-0.593c0.846-0.861,1.275-1.928,1.275-3.203c0-1.042-0.294-1.932-0.884-2.667
		C119.658,24.461,118.961,23.902,118.11,23.672"/>
	<path d="M64.884,44.63l-2.085-5.374h0.772l1.399,3.904c0.11,0.312,0.203,0.609,0.281,0.883c0.086-0.296,0.181-0.589,0.288-0.883
		l1.453-3.904h0.737l-2.114,5.374H64.884z"/>
	<path d="M68.88,42.025c0,0.648,0.175,1.158,0.528,1.529c0.35,0.375,0.784,0.562,1.313,0.562c0.528,0,0.971-0.187,1.321-0.567
		c0.349-0.375,0.516-0.91,0.516-1.603c0-0.436-0.066-0.819-0.223-1.144c-0.146-0.322-0.366-0.582-0.647-0.759
		c-0.282-0.181-0.601-0.273-0.959-0.273c-0.503,0-0.94,0.175-1.305,0.521C69.062,40.638,68.88,41.215,68.88,42.025 M68.148,42.01
		c0-0.889,0.238-1.589,0.721-2.093c0.473-0.501,1.095-0.759,1.857-0.759c0.497,0,0.946,0.121,1.339,0.358
		c0.402,0.24,0.708,0.567,0.92,0.993c0.205,0.425,0.316,0.904,0.316,1.442c0,0.546-0.116,1.033-0.339,1.463
		c-0.213,0.431-0.534,0.758-0.929,0.979c-0.404,0.222-0.844,0.333-1.308,0.333c-0.507,0-0.96-0.119-1.361-0.365
		c-0.402-0.246-0.707-0.581-0.908-1.004C68.247,42.933,68.148,42.484,68.148,42.01"/>
	<polygon points="75.585,44.63 75.585,39.891 73.811,39.891 73.811,39.256 78.077,39.256 78.077,39.891 76.299,39.891 76.299,44.63 
			"/>
	<path d="M79.531,41.627h1.532c0.325,0,0.584-0.032,0.768-0.098c0.181-0.07,0.321-0.178,0.414-0.322
		c0.094-0.149,0.143-0.31,0.143-0.485c0-0.257-0.093-0.463-0.276-0.63c-0.185-0.163-0.474-0.241-0.873-0.241h-1.709V41.627z
		 M78.822,44.63v-5.374h2.385c0.485,0,0.846,0.047,1.093,0.143c0.255,0.094,0.451,0.267,0.605,0.508
		c0.147,0.244,0.217,0.516,0.217,0.813c0,0.381-0.116,0.702-0.368,0.965c-0.245,0.26-0.632,0.427-1.145,0.499
		c0.186,0.091,0.328,0.18,0.426,0.269c0.211,0.189,0.404,0.429,0.598,0.712l0.932,1.464h-0.898l-0.708-1.115
		c-0.212-0.327-0.385-0.573-0.519-0.742c-0.135-0.174-0.247-0.292-0.361-0.36c-0.103-0.067-0.213-0.115-0.325-0.146
		c-0.081-0.015-0.211-0.021-0.392-0.021h-0.831v2.384H78.822z"/>
	<polygon points="84.261,44.63 84.261,39.256 88.147,39.256 88.147,39.891 84.969,39.891 84.969,41.534 87.951,41.534 
		87.951,42.167 84.969,42.167 84.969,43.998 88.275,43.998 88.275,44.63 	"/>
	<path d="M92.065,41.808h1.388c0.457,0,0.793-0.081,0.982-0.255c0.19-0.173,0.287-0.412,0.287-0.723
		c0-0.225-0.055-0.415-0.168-0.577c-0.115-0.162-0.262-0.267-0.453-0.316c-0.119-0.034-0.339-0.047-0.66-0.047h-1.376V41.808z
		 M91.35,44.63v-5.374h2.031c0.356,0,0.628,0.013,0.821,0.05c0.261,0.044,0.485,0.13,0.666,0.251
		c0.173,0.119,0.32,0.295,0.426,0.518c0.109,0.223,0.165,0.464,0.165,0.732c0,0.456-0.149,0.844-0.437,1.161
		c-0.296,0.316-0.816,0.474-1.579,0.474h-1.378v2.186H91.35z"/>
	<path d="M96.772,42.423h1.825l-0.565-1.486c-0.167-0.453-0.294-0.829-0.381-1.122c-0.074,0.349-0.168,0.693-0.293,1.033
		L96.772,42.423z M95.215,44.63l2.07-5.374h0.769l2.199,5.374h-0.81l-0.628-1.628h-2.25l-0.59,1.628H95.215z"/>
	<path d="M101.549,41.627h1.536c0.322,0,0.579-0.032,0.761-0.098c0.187-0.07,0.323-0.178,0.42-0.322
		c0.096-0.149,0.142-0.31,0.142-0.485c0-0.257-0.093-0.463-0.277-0.63c-0.184-0.163-0.481-0.241-0.88-0.241h-1.703V41.627z
		 M100.836,44.63v-5.374h2.39c0.474,0,0.842,0.047,1.093,0.143c0.252,0.094,0.451,0.267,0.597,0.508
		c0.145,0.244,0.224,0.516,0.224,0.813c0,0.381-0.121,0.702-0.37,0.965c-0.25,0.26-0.63,0.427-1.142,0.499
		c0.187,0.091,0.33,0.18,0.426,0.269c0.212,0.189,0.407,0.429,0.592,0.712l0.938,1.464h-0.899l-0.714-1.115
		c-0.201-0.327-0.377-0.573-0.512-0.742c-0.135-0.174-0.255-0.292-0.36-0.36c-0.108-0.067-0.218-0.115-0.326-0.146
		c-0.082-0.015-0.214-0.021-0.398-0.021h-0.826v2.384H100.836z"/>
	<polygon points="107.492,44.63 107.492,39.891 105.717,39.891 105.717,39.256 109.984,39.256 109.984,39.891 108.205,39.891 
		108.205,44.63 	"/>
	<polygon points="110.735,44.63 110.735,39.256 114.621,39.256 114.621,39.891 111.443,39.891 111.443,41.534 114.424,41.534 
		114.424,42.167 111.443,42.167 111.443,43.998 114.749,43.998 114.749,44.63 	"/>
	<polygon points="115.729,44.63 115.729,39.256 116.459,39.256 119.282,43.476 119.282,39.256 119.967,39.256 119.967,44.63 
		119.236,44.63 116.411,40.403 116.411,44.63 	"/>
	<path d="M122.129,42.423h1.823l-0.557-1.486c-0.173-0.453-0.301-0.829-0.387-1.122c-0.064,0.349-0.162,0.693-0.285,1.033
		L122.129,42.423z M120.575,44.63l2.064-5.374h0.772l2.205,5.374h-0.812l-0.631-1.628h-2.254l-0.593,1.628H120.575z"/>
	<rect x="126.305" y="39.256" width="0.71" height="5.374"/>
	<path d="M128.997,41.627h1.529c0.33,0,0.582-0.032,0.766-0.098c0.184-0.07,0.323-0.178,0.42-0.322
		c0.093-0.149,0.147-0.31,0.147-0.485c0-0.257-0.098-0.463-0.278-0.63c-0.191-0.163-0.479-0.241-0.878-0.241h-1.705V41.627z
		 M128.285,44.63v-5.374h2.389c0.48,0,0.843,0.047,1.095,0.143c0.249,0.094,0.45,0.267,0.597,0.508
		c0.148,0.244,0.227,0.516,0.227,0.813c0,0.381-0.125,0.702-0.369,0.965c-0.254,0.26-0.63,0.427-1.153,0.499
		c0.19,0.091,0.336,0.18,0.435,0.269c0.205,0.189,0.403,0.429,0.588,0.712l0.938,1.464h-0.894l-0.714-1.115
		c-0.209-0.327-0.378-0.573-0.514-0.742c-0.135-0.174-0.255-0.292-0.36-0.36c-0.11-0.067-0.217-0.115-0.326-0.146
		c-0.08-0.015-0.217-0.021-0.398-0.021h-0.827v2.384H128.285z"/>
	<polygon points="133.721,44.63 133.721,39.256 137.617,39.256 137.617,39.891 134.434,39.891 134.434,41.534 137.412,41.534 
		137.412,42.167 134.434,42.167 134.434,43.998 137.74,43.998 137.74,44.63 	"/>
	<rect x="63.471" y="48.27" width="0.704" height="5.377"/>
	<path d="M65.418,53.648V48.27h1.066l1.281,3.808c0.114,0.353,0.201,0.622,0.252,0.797c0.059-0.196,0.152-0.486,0.293-0.862
		l1.286-3.743h0.955v5.377h-0.685v-4.502l-1.566,4.502h-0.643l-1.554-4.578v4.578H65.418z"/>
	<path d="M71.681,53.648V48.27h1.076l1.274,3.808c0.111,0.353,0.198,0.622,0.254,0.797c0.066-0.196,0.159-0.486,0.289-0.862
		l1.286-3.743h0.958v5.377h-0.686v-4.502l-1.561,4.502h-0.639l-1.564-4.578v4.578H71.681z"/>
	<path d="M78.486,51.041c0,0.647,0.174,1.159,0.527,1.53c0.343,0.374,0.784,0.561,1.314,0.561c0.529,0,0.971-0.187,1.322-0.565
		c0.344-0.38,0.514-0.91,0.514-1.605c0-0.437-0.069-0.821-0.224-1.144c-0.145-0.328-0.363-0.581-0.646-0.763
		c-0.282-0.178-0.604-0.268-0.959-0.268c-0.503,0-0.942,0.174-1.305,0.518C78.667,49.655,78.486,50.233,78.486,51.041
		 M77.754,51.029c0-0.891,0.238-1.59,0.72-2.096c0.474-0.507,1.096-0.758,1.858-0.758c0.497,0,0.947,0.116,1.339,0.354
		c0.399,0.239,0.708,0.57,0.915,0.995c0.211,0.424,0.318,0.905,0.318,1.443c0,0.544-0.113,1.033-0.336,1.464
		c-0.222,0.432-0.534,0.753-0.931,0.977c-0.404,0.222-0.843,0.336-1.307,0.336c-0.508,0-0.963-0.126-1.361-0.367
		c-0.401-0.246-0.707-0.581-0.909-1.004C77.854,51.948,77.754,51.503,77.754,51.029"/>
	<path d="M84.504,53.013h1.335c0.239,0,0.394-0.01,0.489-0.022c0.167-0.032,0.303-0.081,0.412-0.149
		c0.109-0.069,0.201-0.169,0.272-0.299c0.072-0.131,0.102-0.284,0.102-0.452c0-0.201-0.049-0.375-0.149-0.522
		c-0.102-0.149-0.243-0.252-0.425-0.314c-0.181-0.063-0.446-0.091-0.791-0.091h-1.243V53.013z M84.504,50.528h1.16
		c0.323,0,0.54-0.02,0.684-0.062c0.181-0.05,0.312-0.141,0.41-0.265c0.091-0.125,0.138-0.283,0.138-0.469
		c0-0.179-0.047-0.336-0.13-0.473c-0.085-0.136-0.211-0.229-0.37-0.279c-0.159-0.05-0.43-0.071-0.817-0.071h-1.076V50.528z
		 M83.789,53.648V48.27h2.024c0.412,0,0.739,0.054,0.987,0.165c0.25,0.105,0.44,0.274,0.579,0.502
		c0.146,0.224,0.217,0.462,0.217,0.709c0,0.228-0.062,0.446-0.187,0.648c-0.13,0.203-0.316,0.369-0.57,0.489
		c0.333,0.097,0.577,0.265,0.753,0.492c0.176,0.23,0.265,0.499,0.265,0.815c0,0.25-0.053,0.484-0.164,0.703
		c-0.103,0.214-0.235,0.382-0.393,0.499c-0.158,0.116-0.35,0.206-0.584,0.269c-0.244,0.058-0.529,0.086-0.877,0.086H83.789z"/>
	<rect x="88.957" y="48.27" width="0.717" height="5.377"/>
	<polygon points="90.898,53.648 90.898,48.27 91.612,48.27 91.612,53.013 94.26,53.013 94.26,53.648 	"/>
	<rect x="95.237" y="48.27" width="0.706" height="5.377"/>
	<polygon points="97.212,53.648 97.212,48.27 101.106,48.27 101.106,48.908 97.929,48.908 97.929,50.551 100.909,50.551 
		100.909,51.184 97.929,51.184 97.929,53.013 101.235,53.013 101.235,53.648 	"/>
	<path d="M102.942,50.643h1.525c0.334,0,0.583-0.032,0.769-0.098c0.183-0.069,0.32-0.176,0.421-0.32
		c0.096-0.153,0.14-0.312,0.14-0.488c0-0.254-0.087-0.462-0.274-0.631c-0.191-0.162-0.478-0.241-0.877-0.241h-1.704V50.643z
		 M102.229,53.648V48.27h2.386c0.478,0,0.844,0.047,1.099,0.146c0.246,0.096,0.446,0.268,0.597,0.511
		c0.146,0.247,0.224,0.514,0.224,0.811c0,0.381-0.126,0.702-0.372,0.964c-0.25,0.261-0.628,0.432-1.15,0.501
		c0.197,0.093,0.341,0.18,0.435,0.268c0.208,0.19,0.407,0.427,0.59,0.714l0.938,1.463h-0.897l-0.715-1.118
		c-0.209-0.323-0.376-0.57-0.51-0.74c-0.136-0.171-0.26-0.29-0.363-0.358c-0.109-0.069-0.219-0.116-0.325-0.143
		c-0.081-0.017-0.214-0.028-0.398-0.028h-0.827v2.387H102.229z"/>
</g>
</svg>
